HIERARCHY
ROOT Hips
{
     OFFSET 23.50630 94.69270 -19.95070
     CHANNELS 6 Xposition Yposition Zposition Zrotation Xrotation Yrotation
     JOINT Spine
     {
          OFFSET 0.00000 11.89050 -0.00000
          CHANNELS 3 Zrotation Xrotation Yrotation
          JOINT Spine1
          {
               OFFSET 0.00000 25.65740 0.12766
               CHANNELS 3 Zrotation Xrotation Yrotation
               JOINT HEad
               {
                    OFFSET 0.00000 8.73416 0.01134
                    CHANNELS 3 Zrotation Xrotation Yrotation
                    End Site
                    {
                         OFFSET -0.29000 12.77420 2.51395
                    }
               }
               JOINT LeftShoulder1
               {
                    OFFSET 8.99000 -0.36225 -0.22000
                    CHANNELS 3 Zrotation Xrotation Yrotation
                    JOINT LeftArm
                    {
                         OFFSET 10.28270 -0.00338 0.32212
                         CHANNELS 3 Zrotation Xrotation Yrotation
                         JOINT LeftForeArm
                         {
                              OFFSET 32.76690 0.09914 -1.42434
                              CHANNELS 3 Zrotation Xrotation Yrotation
                              JOINT LeftHand
                              {
                                   OFFSET 27.56430 0.08536 1.02216
                                   CHANNELS 3 Zrotation Xrotation Yrotation
                                   End Site
                                   {
                                        OFFSET 16.74430 -0.60000 1.50291
                                   }
                              }
                         }
                    }
               }
               JOINT RightShoulder
               {
                    OFFSET -8.99000 -0.36225 -0.22000
                    CHANNELS 3 Zrotation Xrotation Yrotation
                    JOINT RightArm
                    {
                         OFFSET -10.28270 -0.00338 0.32212
                         CHANNELS 3 Zrotation Xrotation Yrotation
                         JOINT RightForeArm
                         {
                              OFFSET -32.89710 0.09914 -1.42434
                              CHANNELS 3 Zrotation Xrotation Yrotation
                              JOINT RightHand
                              {
                                   OFFSET -27.49210 0.08536 1.02216
                                   CHANNELS 3 Zrotation Xrotation Yrotation
                                   End Site
                                   {
                                        OFFSET -16.63120 -0.60000 1.50291
                                   }
                              }
                         }
                    }
               }
          }
     }
     JOINT LeftUpLeg
     {
          OFFSET 8.94580 -8.66707 0.10165
          CHANNELS 3 Zrotation Xrotation Yrotation
          JOINT LeftLeg
          {
               OFFSET -0.00000 -44.42270 1.37270
               CHANNELS 3 Zrotation Xrotation Yrotation
               JOINT LeftFoot
               {
                    OFFSET -0.25355 -42.09240 -1.46059
                    CHANNELS 3 Zrotation Xrotation Yrotation
                    JOINT LeftToes
                    {
                         OFFSET -0.04000 -4.41509 8.49910
                         CHANNELS 3 Zrotation Xrotation Yrotation
                         End Site
                         {
                              OFFSET 0.08000 -0.04745 9.77979
                         }
                    }
               }
          }
     }
     JOINT RightUpLeg
     {
          OFFSET -8.94580 -8.66707 0.10165
          CHANNELS 3 Zrotation Xrotation Yrotation
          JOINT RightLeg
          {
               OFFSET -0.00000 -44.42270 1.37270
               CHANNELS 3 Zrotation Xrotation Yrotation
               JOINT RightFoot
               {
                    OFFSET 0.25355 -42.09240 -1.46059
                    CHANNELS 3 Zrotation Xrotation Yrotation
                    JOINT RightToes
                    {
                         OFFSET 0.04000 -4.41509 8.49910
                         CHANNELS 3 Zrotation Xrotation Yrotation
                         End Site
                         {
                              OFFSET -0.08000 -0.13745 9.77979
                         }
                    }
               }
          }
     }
}
MOTION
Frames: 10
Frame Time: 0.01667
29.07570 94.11480 14.44200 -3.65246 -17.09990 15.08550 -4.95126 10.28150 3.44375 -10.90530 20.17850 10.28210 17.06160 -4.30122 -22.10700 -0.00000 0.00000 -0.00000 -63.46140 -37.17460 -96.83200 -13.58720 32.14630 -83.21560 37.31520 4.30329 -12.60560 -16.60900 -0.33008 2.81249 74.24200 -18.21130 91.46100 -5.60056 27.31940 112.29100 32.34000 9.19224 -6.74035 11.05750 -12.20260 -19.51950 -18.83900 11.15660 52.30240 1.43877 17.30040 -0.43152 5.40792 -21.25630 -78.13310 -29.92230 18.38260 22.16300 42.12230 18.40290 -31.13620 -24.83270 22.74770 6.70260 2.15165 -19.72570 14.94440 
29.69300 94.31750 13.99780 -5.53486 -17.02550 11.31190 -4.41478 10.16740 2.41829 -9.92510 20.10160 8.03462 16.33720 -3.76566 -18.46740 -0.00000 0.00000 -0.00000 -70.10030 -39.78610 -98.18240 -15.39810 36.05270 -83.95480 38.25540 4.24544 -12.32420 -15.03740 -0.27027 2.85764 77.48930 -18.27450 91.25180 -5.40633 27.79600 111.53900 31.30660 9.28842 -6.48352 13.49480 -11.48680 -18.76840 -19.57110 9.50427 53.99640 1.64904 16.66590 -0.46419 6.10422 -19.90850 -77.21400 -29.85340 16.91900 20.90080 42.93970 18.85510 -33.93660 -25.63590 21.21830 6.56594 1.25089 -15.54420 12.25650 
30.24910 94.48640 13.55950 -7.30125 -16.89070 7.74054 -3.84953 10.13270 1.41829 -8.91230 20.17300 5.85600 15.63190 -3.47788 -14.87700 -0.00000 0.00000 -0.00000 -76.55980 -42.15480 -99.96640 -17.17200 39.47540 -84.48270 38.94830 4.16350 -12.23590 -12.99750 -0.20012 3.04613 80.63820 -17.93790 91.04500 -5.01971 28.20710 110.78500 30.32110 9.39079 -6.18243 15.84910 -10.66180 -17.95990 -20.29510 7.90056 55.46040 1.77466 16.07990 -0.47817 6.79421 -18.51020 -76.36720 -29.71120 15.73050 19.68550 43.87560 19.29260 -36.03640 -25.62680 19.81800 6.23525 0.65171 -11.86500 9.76792 
30.76220 94.60030 13.15590 -8.93298 -16.71790 4.30284 -3.29590 10.14080 0.52852 -7.93750 20.31680 3.95819 15.07930 -3.38211 -11.53250 -0.00000 0.00000 -0.00000 -82.86350 -44.10600 -102.06900 -19.00160 42.57410 -84.72320 39.32240 4.07399 -12.31570 -10.32420 -0.09933 3.31538 83.38310 -17.44580 90.64310 -4.44522 28.47030 110.05000 29.39910 9.49806 -5.83829 18.06890 -9.80192 -17.09960 -21.04330 6.56265 56.73880 1.80572 15.48860 -0.47173 7.39795 -17.22400 -75.55760 -29.56040 14.81750 18.63550 44.81680 19.80810 -37.36580 -24.95170 18.73580 5.81941 0.32118 -9.03148 7.69670 
31.24090 94.65850 12.79990 -10.41110 -16.51530 0.91897 -2.78022 10.15610 -0.18717 -7.04242 20.46380 2.47488 14.64740 -3.36263 -8.56116 -0.00000 0.00000 -0.00000 -89.14610 -45.60920 -104.38300 -21.06310 45.57300 -84.55170 39.37120 4.00416 -12.48820 -7.12773 0.03876 3.56579 85.74970 -16.97940 89.99880 -3.70293 28.67910 109.39800 28.51610 9.60463 -5.47206 20.07720 -9.00185 -16.17910 -21.78020 5.73382 57.86310 1.65943 14.89630 -0.43020 7.84972 -16.19280 -74.72740 -29.48500 14.17270 17.83830 45.65380 20.40390 -38.02440 -23.99880 18.19660 5.47247 0.18927 -7.39944 6.39588 
31.68010 94.67530 12.47500 -11.72750 -16.27570 -2.45514 -2.29638 10.14690 -0.70349 -6.21076 20.55680 1.41658 14.13200 -3.30557 -6.03944 -0.00000 0.00000 -0.00000 -95.39350 -46.73340 -106.71400 -23.54090 48.50980 -83.81470 39.12920 3.96132 -12.72120 -3.67584 0.20193 3.70391 87.90270 -16.62920 89.18340 -2.86056 28.96560 108.88900 27.63870 9.70217 -5.11779 21.83300 -8.39140 -15.27970 -22.48770 5.59055 59.00050 1.25149 14.34270 -0.34090 8.10412 -15.54140 -73.93170 -29.53290 13.78970 17.32650 46.27900 20.98990 -38.27800 -23.31980 18.43350 5.36354 0.20934 -7.38093 6.11558 
32.07310 94.63240 12.17040 -12.86880 -15.97730 -5.80797 -1.84742 10.09640 -1.04227 -5.40519 20.56170 0.71622 13.32540 -3.17305 -3.96776 -0.00000 0.00000 -0.00000 -101.33200 -47.59450 -108.77800 -26.37450 51.18500 -82.54740 38.64430 3.95501 -12.97050 -0.27907 0.36513 3.70327 89.94770 -16.41270 88.29610 -2.00289 29.34010 108.53700 26.76080 9.78580 -4.79739 23.39820 -7.82446 -14.57730 -23.16880 5.61497 60.39210 0.82586 14.00740 -0.25511 8.14049 -15.37160 -73.34910 -29.72740 13.62660 17.12640 46.65190 21.50510 -38.44340 -23.36130 19.48210 5.59693 0.38820 -9.07682 6.77266 
32.41390 94.51830 11.86660 -13.82910 -15.60030 -9.12561 -1.43318 10.01070 -1.23519 -4.59980 20.48540 0.29072 12.17920 -3.01452 -2.23101 -0.00000 0.00000 -0.00000 -106.64400 -48.32010 -110.36500 -29.23270 53.38170 -81.05790 38.00890 3.99803 -13.15800 2.74404 0.50411 3.60581 91.97000 -16.29320 87.44160 -1.16398 29.75010 108.31800 25.89320 9.85734 -4.50662 24.78590 -7.37682 -14.12590 -23.85270 5.79000 62.18070 0.42435 13.82660 -0.17778 7.99157 -15.65170 -73.08160 -30.08240 13.62190 17.29930 46.79180 21.86840 -38.57250 -24.09350 21.14590 6.14395 0.70477 -11.70430 7.86388 
32.69770 94.33460 11.54070 -14.61660 -15.14450 -12.39680 -1.06367 9.94642 -1.35649 -3.79208 20.42950 -0.01748 10.77630 -2.94448 -0.52851 -0.00000 0.00000 -0.00000 -111.32100 -49.11310 -111.64300 -31.77790 55.02640 -79.69660 37.37380 4.06442 -13.28220 4.88989 0.60116 3.55090 94.26030 -16.05620 86.76270 -0.27991 30.14080 108.17100 23.46910 10.06850 -3.52592 26.01470 -7.07072 -13.86860 -24.54420 6.10124 64.28180 0.07664 13.64510 -0.11166 7.76370 -16.13050 -72.98020 -30.58960 13.72290 17.90440 46.72480 22.00840 -38.35150 -24.86870 23.16000 6.80683 1.02380 -13.94870 8.61006 
32.91390 94.08860 11.16790 -15.24180 -14.63680 -15.60860 -0.75880 9.88548 -1.39893 -3.00391 20.35400 -0.20180 9.22648 -2.86845 1.13795 -0.00000 0.00000 -0.00000 -115.07400 -49.99680 -112.43700 -33.62550 56.10900 -78.81550 36.86850 4.10408 -13.42290 6.43615 0.67822 3.59342 96.42660 -15.77000 86.16830 0.44326 30.41110 108.18300 21.26530 10.23950 -2.54977 27.10200 -6.88225 -13.67560 -25.22980 6.53921 66.47860 -0.19498 13.33790 -0.06007 7.55975 -16.54480 -72.77580 -31.20790 13.91940 18.93540 46.41600 21.85850 -37.36130 -24.95150 25.37450 7.33943 1.21661 -15.16020 8.38866 
